<?xml version="1.0" encoding="UTF-8"?>
<svg id="uuid-2ec4ca62-0a90-4c10-a94f-a8abd7f9f668" data-name="Layer 1" xmlns="http://www.w3.org/2000/svg" viewBox="0 0 544.96 200">
  <defs>
    <style>
      .uuid-705372c8-7311-4946-9ca4-503b5a7d2edd {
        fill: #231f20;
      }

      .uuid-f68a7059-a8b9-4b61-a687-13cc4334e5d2 {
        fill: #070808;
      }

      .uuid-ebc29ad2-d76e-42ac-a24f-ab52096fcbde {
        fill: #c57229;
      }

      .uuid-4e045fb6-f53d-4192-a0fa-3f5774263d17 {
        fill: #686868;
      }
    </style>
  </defs>
  <g>
    <g>
      <path class="uuid-705372c8-7311-4946-9ca4-503b5a7d2edd" d="M168.99,102.1c0-3.3.71-6.2,2.13-8.7,1.42-2.51,3.4-4.46,5.95-5.85,2.55-1.4,5.51-2.1,8.89-2.1,1.63,0,3.25.21,4.88.63,1.63.42,3.09.98,4.38,1.69l-.75,4.57c-1.17-.63-2.55-1.14-4.13-1.53-1.59-.4-3.05-.59-4.38-.59-3.46,0-6.25,1.05-8.36,3.16-2.11,2.11-3.16,4.94-3.16,8.48s1.06,6.55,3.19,8.64c2.13,2.09,5.03,3.13,8.7,3.13,1.38,0,2.79-.17,4.23-.5,1.44-.33,2.99-.85,4.66-1.56l.63,4.45c-1.34.75-2.87,1.34-4.6,1.75-1.73.42-3.47.62-5.23.62-3.46,0-6.47-.67-9.01-2-2.55-1.33-4.52-3.22-5.92-5.67-1.4-2.44-2.1-5.31-2.1-8.61Z"/>
      <path class="uuid-705372c8-7311-4946-9ca4-503b5a7d2edd" d="M207.99,66.86h5.32v50.71h-5.32v-50.71Z"/>
      <path class="uuid-705372c8-7311-4946-9ca4-503b5a7d2edd" d="M226.64,74.12c0-1.08.34-1.98,1.03-2.69.69-.71,1.56-1.06,2.63-1.06s1.93.36,2.6,1.06c.67.71,1,1.61,1,2.69s-.33,1.98-1,2.69c-.67.71-1.53,1.06-2.6,1.06s-1.94-.35-2.63-1.06c-.69-.71-1.03-1.61-1.03-2.69ZM227.65,86.27h5.32v23.26h-5.32v-23.26Z"/>
      <path class="uuid-705372c8-7311-4946-9ca4-503b5a7d2edd" d="M247.3,86.27h5.01l.06,5.38c.88-2,2.24-3.57,4.1-4.69,1.86-1.13,3.98-1.69,6.35-1.69,3.71,0,6.57,1.16,8.58,3.47,2,2.32,3.01,5.63,3.01,9.92v18.91h-5.32v-17.97c0-6.43-2.5-9.64-7.51-9.64-2.8,0-4.99.92-6.57,2.75-1.59,1.84-2.38,4.36-2.38,7.58v17.28h-5.32v-31.3Z"/>
      <path class="uuid-705372c8-7311-4946-9ca4-503b5a7d2edd" d="M287.55,74.12c0-1.08.34-1.98,1.03-2.69.69-.71,1.56-1.06,2.63-1.06s1.93.36,2.6,1.06c.67.71,1,1.61,1,2.69s-.33,1.98-1,2.69c-.67.71-1.53,1.06-2.6,1.06s-1.94-.35-2.63-1.06c-.69-.71-1.03-1.61-1.03-2.69ZM288.56,86.27h5.32v31.3h-5.32v-31.3Z"/>
      <path class="uuid-705372c8-7311-4946-9ca4-503b5a7d2edd" d="M306.02,102.1c0-3.3.71-6.2,2.13-8.7,1.42-2.51,3.4-4.46,5.95-5.85,2.55-1.4,5.51-2.1,8.89-2.1,1.63,0,3.25.21,4.88.63,1.63.42,3.09.98,4.38,1.69l-.75,4.57c-1.17-.63-2.55-1.14-4.13-1.53-1.59-.4-3.04-.59-4.38-.59-3.46,0-6.25,1.05-8.36,3.16-2.11,2.11-3.16,4.94-3.16,8.48s1.06,6.55,3.19,8.64c2.13,2.09,5.03,3.13,8.7,3.13,1.38,0,2.79-.17,4.22-.5,1.44-.33,3-.85,4.67-1.56l.62,4.45c-1.34.75-2.87,1.34-4.6,1.75-1.73.42-3.47.62-5.23.62-3.47,0-6.47-.67-9.01-2-2.55-1.33-4.52-3.22-5.92-5.67-1.4-2.44-2.1-5.31-2.1-8.61Z"/>
      <path class="uuid-705372c8-7311-4946-9ca4-503b5a7d2edd" d="M359.98,101.92c0-3.09.7-5.89,2.1-8.42,1.4-2.52,3.29-4.53,5.67-6.01,2.38-1.48,5.01-2.22,7.89-2.22,2.38,0,4.56.59,6.54,1.75,1.98,1.17,3.58,2.82,4.79,4.94v-25.1h5.32v50.71h-5.2l-.13-5.7c-1.25,2.13-2.9,3.78-4.94,4.94-2.05,1.17-4.38,1.75-7.01,1.75-2.88,0-5.46-.71-7.73-2.13-2.27-1.42-4.06-3.39-5.35-5.92-1.3-2.53-1.94-5.39-1.94-8.61ZM366.84,95.72c-.94,1.8-1.41,3.86-1.41,6.2s.47,4.4,1.41,6.2c.94,1.79,2.23,3.19,3.88,4.19,1.65,1,3.55,1.5,5.7,1.5s4.04-.5,5.67-1.5c1.63-1,2.91-2.4,3.85-4.19.94-1.79,1.41-3.86,1.41-6.2s-.47-4.4-1.41-6.2c-.94-1.79-2.22-3.19-3.85-4.19s-3.52-1.5-5.67-1.5-4.05.5-5.7,1.5c-1.65,1-2.94,2.4-3.88,4.19Z"/>
      <path class="uuid-705372c8-7311-4946-9ca4-503b5a7d2edd" d="M404.43,102.04c0-3.3.67-6.2,2-8.7,1.33-2.5,3.17-4.48,5.51-5.92,2.34-1.44,5.01-2.16,8.01-2.16,2.84,0,5.31.65,7.42,1.94,2.11,1.3,3.75,3.09,4.94,5.38,1.19,2.3,1.78,4.99,1.78,8.08,0,.54-.01,1.04-.03,1.5-.02.46-.05.94-.09,1.44h-24.29c.38,3.3,1.63,5.82,3.75,7.58s4.99,2.63,8.58,2.63,7.26-.86,10.77-2.57l.63,4.51c-1.42.88-3.16,1.56-5.23,2.07-2.07.5-4.2.75-6.42.75-3.55,0-6.63-.67-9.23-2-2.61-1.34-4.61-3.25-6.01-5.73-1.4-2.48-2.1-5.41-2.1-8.8ZM425.93,91.96c-1.61-1.42-3.7-2.13-6.29-2.13-2.71,0-4.95.85-6.7,2.54-1.75,1.69-2.82,4.04-3.19,7.04h19.22c0-.46-.04-.9-.13-1.31-.33-2.67-1.3-4.72-2.91-6.14Z"/>
      <path class="uuid-705372c8-7311-4946-9ca4-503b5a7d2edd" d="M457.51,111.68l9.89-25.42h5.38l-12.83,31.3h-5.2l-12.89-31.3h5.76l9.89,25.42Z"/>
    </g>
    <rect class="uuid-ebc29ad2-d76e-42ac-a24f-ab52096fcbde" x="218.91" y="114.79" width="22.8" height="3.44"/>
  </g>
  <g>
    <path class="uuid-f68a7059-a8b9-4b61-a687-13cc4334e5d2" d="M72.17,78.42l37.57-32.33v14.35l-29.42,25.06,29.42,25.06v14.87l-37.57-32.32v-14.69Z"/>
    <polygon class="uuid-4e045fb6-f53d-4192-a0fa-3f5774263d17" points="114.37 74.56 114.37 79.1 114.37 88.91 114.37 98.81 117.93 94.42 117.93 91.95 143.79 113.98 117.93 136.01 117.93 132.25 114.37 127.86 114.37 139.04 114.37 147.57 114.37 153.91 151.94 121.58 151.94 106.89 114.37 74.56"/>
  </g>
</svg>