<?xml version="1.0" encoding="UTF-8"?>
<svg id="uuid-054e9ae8-e400-4537-9319-3efd997c2afa" data-name="Layer 1" xmlns="http://www.w3.org/2000/svg" viewBox="0 0 200 200">
  <defs>
    <style>
      .uuid-2f1c741d-d1c0-49c1-bdda-76ea699281f8 {
        fill: #231f20;
      }

      .uuid-fbbb2f92-37c5-4793-99f4-fc13b44cef24 {
        fill: #070808;
      }

      .uuid-3ee87ecf-eb96-45eb-a33b-ec0c11eb16e6 {
        fill: #c57229;
      }

      .uuid-841b2ee0-0f73-426a-8150-69d69c649654 {
        fill: #686868;
      }
    </style>
  </defs>
  <g>
    <g>
      <path class="uuid-2f1c741d-d1c0-49c1-bdda-76ea699281f8" d="M33.57,158.69c0-1.44.31-2.71.93-3.81.62-1.1,1.49-1.95,2.6-2.56,1.11-.61,2.41-.92,3.89-.92.71,0,1.42.09,2.14.27s1.35.43,1.92.74l-.33,2c-.51-.27-1.11-.5-1.81-.67-.69-.17-1.33-.26-1.92-.26-1.52,0-2.73.46-3.66,1.38-.92.92-1.38,2.16-1.38,3.71s.47,2.87,1.4,3.78c.93.91,2.2,1.37,3.81,1.37.6,0,1.22-.07,1.85-.22.63-.15,1.31-.37,2.04-.68l.27,1.94c-.58.33-1.25.58-2.01.77-.76.18-1.52.27-2.29.27-1.52,0-2.83-.29-3.94-.88-1.11-.58-1.98-1.41-2.59-2.48-.61-1.07-.92-2.32-.92-3.76Z"/>
      <path class="uuid-2f1c741d-d1c0-49c1-bdda-76ea699281f8" d="M50.62,143.28h2.33v22.18h-2.33v-22.18Z"/>
      <path class="uuid-2f1c741d-d1c0-49c1-bdda-76ea699281f8" d="M58.78,146.45c0-.47.15-.87.45-1.18.3-.31.68-.47,1.15-.47s.84.16,1.14.47c.29.31.44.7.44,1.18s-.15.87-.44,1.18c-.29.31-.67.47-1.14.47s-.85-.16-1.15-.47c-.3-.31-.45-.7-.45-1.18ZM59.22,151.76h2.33v10.17h-2.33v-10.17Z"/>
      <path class="uuid-2f1c741d-d1c0-49c1-bdda-76ea699281f8" d="M67.82,151.76h2.19l.03,2.35c.38-.88.98-1.56,1.79-2.05.81-.49,1.74-.74,2.78-.74,1.62,0,2.87.51,3.75,1.52.88,1.01,1.31,2.46,1.31,4.34v8.27h-2.33v-7.86c0-2.81-1.09-4.22-3.29-4.22-1.22,0-2.18.4-2.87,1.2-.69.8-1.04,1.91-1.04,3.31v7.56h-2.33v-13.69Z"/>
      <path class="uuid-2f1c741d-d1c0-49c1-bdda-76ea699281f8" d="M85.42,146.45c0-.47.15-.87.45-1.18.3-.31.68-.47,1.15-.47s.84.16,1.14.47c.29.31.44.7.44,1.18s-.15.87-.44,1.18c-.29.31-.67.47-1.14.47s-.85-.16-1.15-.47c-.3-.31-.45-.7-.45-1.18ZM85.86,151.76h2.33v13.69h-2.33v-13.69Z"/>
      <path class="uuid-2f1c741d-d1c0-49c1-bdda-76ea699281f8" d="M93.5,158.69c0-1.44.31-2.71.93-3.81.62-1.1,1.49-1.95,2.6-2.56,1.11-.61,2.41-.92,3.89-.92.71,0,1.42.09,2.14.27.71.18,1.35.43,1.92.74l-.33,2c-.51-.27-1.11-.5-1.81-.67-.69-.17-1.33-.26-1.92-.26-1.52,0-2.73.46-3.66,1.38-.92.92-1.38,2.16-1.38,3.71s.47,2.87,1.4,3.78c.93.91,2.2,1.37,3.81,1.37.6,0,1.22-.07,1.85-.22.63-.15,1.31-.37,2.04-.68l.27,1.94c-.58.33-1.26.58-2.01.77-.76.18-1.52.27-2.29.27-1.52,0-2.83-.29-3.94-.88-1.11-.58-1.98-1.41-2.59-2.48-.61-1.07-.92-2.32-.92-3.76Z"/>
      <path class="uuid-2f1c741d-d1c0-49c1-bdda-76ea699281f8" d="M117.1,158.61c0-1.35.31-2.58.92-3.68.61-1.1,1.44-1.98,2.48-2.63,1.04-.65,2.19-.97,3.45-.97,1.04,0,1.99.26,2.86.77s1.56,1.23,2.09,2.16v-10.98h2.33v22.18h-2.27l-.05-2.49c-.55.93-1.27,1.65-2.16,2.16-.89.51-1.92.77-3.07.77-1.26,0-2.39-.31-3.38-.93s-1.77-1.48-2.34-2.59c-.57-1.1-.85-2.36-.85-3.76ZM120.1,155.9c-.41.79-.62,1.69-.62,2.71s.21,1.93.62,2.71.98,1.4,1.7,1.83c.72.44,1.55.66,2.49.66s1.77-.22,2.48-.66,1.27-1.05,1.68-1.83.62-1.69.62-2.71-.21-1.93-.62-2.71c-.41-.78-.97-1.4-1.68-1.83s-1.54-.66-2.48-.66-1.77.22-2.49.66c-.72.44-1.29,1.05-1.7,1.83Z"/>
      <path class="uuid-2f1c741d-d1c0-49c1-bdda-76ea699281f8" d="M136.54,158.66c0-1.44.29-2.71.88-3.81.58-1.09,1.39-1.96,2.41-2.59,1.02-.63,2.19-.95,3.5-.95,1.24,0,2.32.28,3.24.85.92.57,1.64,1.35,2.16,2.35.52,1,.78,2.18.78,3.53,0,.24,0,.46-.01.66,0,.2-.02.41-.04.63h-10.62c.16,1.44.71,2.55,1.64,3.31s2.18,1.15,3.75,1.15,3.18-.37,4.71-1.12l.27,1.97c-.62.38-1.38.68-2.29.9-.9.22-1.84.33-2.81.33-1.55,0-2.9-.29-4.04-.88-1.14-.58-2.02-1.42-2.63-2.51-.61-1.09-.92-2.37-.92-3.85ZM145.94,154.25c-.7-.62-1.62-.93-2.75-.93-1.19,0-2.16.37-2.93,1.11-.77.74-1.23,1.77-1.4,3.08h8.41c0-.2-.02-.39-.05-.57-.15-1.17-.57-2.06-1.27-2.68Z"/>
      <path class="uuid-2f1c741d-d1c0-49c1-bdda-76ea699281f8" d="M159.75,162.88l4.33-11.12h2.35l-5.61,13.69h-2.27l-5.64-13.69h2.52l4.33,11.12Z"/>
    </g>
    <rect class="uuid-3ee87ecf-eb96-45eb-a33b-ec0c11eb16e6" x="55.4" y="163.95" width="9.97" height="1.5"/>
  </g>
  <g>
    <path class="uuid-fbbb2f92-37c5-4793-99f4-fc13b44cef24" d="M59.33,66.48l37.57-32.33v14.35l-29.42,25.06,29.42,25.06v14.87l-37.57-32.32v-14.69Z"/>
    <polygon class="uuid-841b2ee0-0f73-426a-8150-69d69c649654" points="101.53 62.62 101.53 67.16 101.53 76.97 101.53 86.87 105.09 82.48 105.09 80.01 130.95 102.04 105.09 124.07 105.09 120.31 101.53 115.92 101.53 127.1 101.53 135.63 101.53 141.97 139.1 109.64 139.1 94.95 101.53 62.62"/>
  </g>
</svg>